<?xml version="1.0" encoding="UTF-8" standalone="no"?>
<svg
   width="366.2948"
   zoomAndPan="magnify"
   viewBox="0 0 274.7211 73.457031"
   height="97.942711"
   preserveAspectRatio="xMidYMid"
   version="1.0"
   id="svg54"
   sodipodi:docname="Logo_Tom_Farrell.svg"
   inkscape:version="1.3 (0e150ed6c4, 2023-07-21)"
   xmlns:inkscape="http://www.inkscape.org/namespaces/inkscape"
   xmlns:sodipodi="http://sodipodi.sourceforge.net/DTD/sodipodi-0.dtd"
   xmlns="http://www.w3.org/2000/svg"
   xmlns:svg="http://www.w3.org/2000/svg">
  <sodipodi:namedview
     id="namedview54"
     pagecolor="#ffffff"
     bordercolor="#000000"
     borderopacity="0.25"
     inkscape:showpageshadow="2"
     inkscape:pageopacity="0.0"
     inkscape:pagecheckerboard="0"
     inkscape:deskcolor="#d1d1d1"
     showgrid="false"
     inkscape:zoom="1.784"
     inkscape:cx="177.41031"
     inkscape:cy="80.156951"
     inkscape:window-width="1920"
     inkscape:window-height="1130"
     inkscape:window-x="3065"
     inkscape:window-y="-6"
     inkscape:window-maximized="1"
     inkscape:current-layer="svg54" />
  <defs
     id="defs3">
    <g
       id="g1" />
    <clipPath
       id="f3b5dff322">
      <path
         d="m 92,149 h 35.85156 v 51.97656 H 92 Z m 0,0"
         clip-rule="nonzero"
         id="path1" />
    </clipPath>
    <clipPath
       id="e9d94a3ad4">
      <path
         d="M 54.351562,138 H 71 v 57 H 54.351562 Z m 0,0"
         clip-rule="nonzero"
         id="path2" />
    </clipPath>
    <clipPath
       id="c903aab2bf">
      <path
         d="m 74,127.47656 h 38 V 135 H 74 Z m 0,0"
         clip-rule="nonzero"
         id="path3" />
    </clipPath>
  </defs>
  <g
     clip-path="url(#f3b5dff322)"
     id="g4"
     transform="translate(-54.351562,-127.49609)">
    <path
       fill="#54afe6"
       d="m 92.960938,200.95312 c -0.285157,0 -0.527344,-0.22265 -0.542969,-0.51562 -0.01172,-0.29688 0.21875,-0.55469 0.515625,-0.57031 18.976566,-0.96094 33.835936,-16.60938 33.835936,-35.61719 0,-4.99609 -1.01562,-9.82813 -3.01953,-14.36719 -0.12109,-0.27344 0.004,-0.59375 0.27734,-0.71484 0.27344,-0.1211 0.59375,0.004 0.71485,0.27734 2.0664,4.67578 3.11328,9.66016 3.11328,14.80469 0,9.47266 -3.60547,18.47266 -10.16016,25.34375 -6.52734,6.84766 -15.30078,10.88281 -24.707029,11.35937 -0.0078,0 -0.01563,0 -0.02734,0"
       fill-opacity="1"
       fill-rule="nonzero"
       id="path4" />
  </g>
  <g
     clip-path="url(#e9d94a3ad4)"
     id="g5"
     transform="translate(-54.351562,-127.49609)">
    <path
       fill="#2c3587"
       d="m 69.816406,194.06641 c -0.109375,0 -0.222656,-0.0312 -0.316406,-0.10157 -4.589844,-3.34765 -8.398438,-7.76953 -11.015625,-12.79297 -2.703125,-5.1914 -4.132813,-11.04296 -4.132813,-16.92187 0,-9.69531 3.757813,-18.84766 10.578126,-25.77344 0.207031,-0.21484 0.550781,-0.21484 0.765624,-0.008 0.214844,0.21094 0.21875,0.55469 0.0078,0.76953 C 59.082031,145.96094 55.4375,154.83984 55.4375,164.25 c 0,11.34375 5.496094,22.125 14.699219,28.83594 0.242187,0.17578 0.296875,0.51562 0.121093,0.75781 -0.105468,0.14844 -0.273437,0.22266 -0.441406,0.22266"
       fill-opacity="1"
       fill-rule="nonzero"
       id="path5" />
  </g>
  <g
     clip-path="url(#c903aab2bf)"
     id="g6"
     transform="translate(-54.351562,-127.49609)">
    <path
       fill="#2c3587"
       d="m 111.43359,134.84375 c -0.10546,0 -0.21093,-0.0312 -0.30468,-0.0977 -5.92188,-4.03125 -12.84766,-6.16406 -20.023441,-6.16406 -5.410157,0 -10.605469,1.1875 -15.449219,3.52344 -0.269531,0.1289 -0.59375,0.0156 -0.726562,-0.25391 -0.128907,-0.26953 -0.01563,-0.59375 0.253906,-0.72265 4.992187,-2.41016 10.347656,-3.63282 15.921875,-3.63282 7.394531,0 14.531251,2.19922 20.632811,6.35547 0.25,0.16797 0.3125,0.50391 0.14453,0.75391 -0.10547,0.15234 -0.27734,0.23828 -0.44922,0.23828"
       fill-opacity="1"
       fill-rule="nonzero"
       id="path6" />
  </g>
  <path
     fill="#286291"
     d="m 56.472658,64.492186 c -0.16797,0 -0.33594,-0.0781 -0.44141,-0.22656 -0.17578,-0.24219 -0.12109,-0.58203 0.1211,-0.75781 4.51953,-3.28516 8.16406,-7.6875 10.53515,-12.73047 0.12891,-0.26953 0.45313,-0.38672 0.72266,-0.25782 0.27344,0.12891 0.38672,0.44922 0.26172,0.72266 -2.44922,5.20313 -6.21094,9.75 -10.88281,13.14453 -0.0937,0.0703 -0.20704,0.10547 -0.31641,0.10547"
     fill-opacity="1"
     fill-rule="nonzero"
     id="path7" />
  <path
     fill="#f1ad53"
     d="m 36.753907,70.898436 c -7.355469,0 -14.367188,-2.3125 -20.277344,-6.6875 -2.839844,-2.10156 -5.332031,-4.62109 -7.40625,-7.48828 -2.097656,-2.89844 -3.71875,-6.08984 -4.816406,-9.48047 -0.08984,-0.28516 0.06641,-0.58984 0.351562,-0.68359 0.285157,-0.0937 0.589844,0.0664 0.683594,0.35156 4.429687,13.69922 17.074219,22.90234 31.464844,22.90234 2.941406,0 5.863281,-0.38672 8.675781,-1.15625 0.29297,-0.0781 0.58984,0.0937 0.66797,0.38282 0.0781,0.28906 -0.0937,0.58593 -0.38281,0.66796 -2.906254,0.78907 -5.921879,1.19141 -8.960941,1.19141"
     fill-opacity="1"
     fill-rule="nonzero"
     id="path8" />
  <path
     fill="#f1ad53"
     d="m 70.347658,36.605466 c -0.29297,0 -0.53516,-0.23828 -0.54297,-0.53125 -0.35937,-17.85547 -15.1875,-32.3789 -33.050781,-32.3789 -10.726563,0 -20.835938,5.2539 -27.042969,14.05859 -0.171875,0.24609 -0.511719,0.30469 -0.753906,0.13281 -0.246094,-0.17578 -0.304688,-0.51172 -0.132813,-0.75781 3.09375,-4.39063 7.230469,-8.03906 11.960938,-10.55078 4.886719,-2.59766 10.410156,-3.96875 15.96875,-3.96875 8.984371,0 17.472661,3.47265 23.902341,9.78125 6.41797,6.29687 10.05469,14.70312 10.23438,23.66015 0.008,0.30079 -0.23047,0.54688 -0.53125,0.55469 -0.004,0 -0.008,0 -0.0117,0"
     fill-opacity="1"
     fill-rule="nonzero"
     id="path9" />
  <path
     fill="#f1ad53"
     d="m 27.972657,67.027346 c -0.05078,0 -0.101563,-0.008 -0.15625,-0.0234 -6.386719,-1.89063 -12.140625,-5.87109 -16.195313,-11.21484 -4.191406,-5.51954 -6.40625,-12.10157 -6.40625,-19.03516 0,-11.58203 6.34375,-22.21484 16.558594,-27.75 0.261719,-0.14453 0.59375,-0.0469 0.734375,0.21875 0.144531,0.26562 0.04687,0.59375 -0.21875,0.73437 -9.863281,5.34766 -15.988281,15.61329 -15.988281,26.79688 0,13.39453 8.972656,25.40625 21.824218,29.21094 0.289063,0.082 0.453126,0.38672 0.367188,0.67187 -0.07031,0.23828 -0.285156,0.39063 -0.519531,0.39063"
     fill-opacity="1"
     fill-rule="nonzero"
     id="path10" />
  <path
     fill="#544f9f"
     d="m 36.753907,68.292966 c -0.113281,0 -0.226563,0 -0.339844,0 -0.300781,-0.004 -0.542969,-0.25 -0.539063,-0.55078 0.0039,-0.29687 0.246094,-0.53516 0.542969,-0.53516 0.0039,0 0.0039,0 0.0078,0 0.109375,0 0.21875,0 0.328125,0 16.792971,0 30.453121,-13.66015 30.453121,-30.45312 0,-16.79297 -13.66015,-30.45313 -30.453121,-30.45313 -0.25,0 -0.5,0.004 -0.75,0.008 -0.300781,0.004 -0.546875,-0.23047 -0.554688,-0.52735 -0.0078,-0.30078 0.230469,-0.55078 0.53125,-0.55859 0.253907,-0.004 0.515625,-0.008 0.773438,-0.008 17.390621,0 31.539061,14.14843 31.539061,31.53906 0,17.39062 -14.14844,31.53906 -31.539061,31.53906"
     fill-opacity="1"
     fill-rule="nonzero"
     id="path11" />
  <path
     fill="#f0401e"
     d="m 36.753907,65.687496 c -15.953125,0 -28.933594,-12.98047 -28.933594,-28.93359 0,-15.95313 12.980469,-28.93359 28.933594,-28.93359 2.199219,0 4.394531,0.25 6.523437,0.74218 0.292969,0.0664 0.476563,0.35938 0.40625,0.65235 -0.06641,0.28906 -0.359375,0.47265 -0.648437,0.40625 -2.050781,-0.47657 -4.164063,-0.71485 -6.28125,-0.71485 -15.355469,0 -27.847657,12.49219 -27.847657,27.84766 0,15.35547 12.492188,27.84766 27.847657,27.84766 2.925781,0 5.808593,-0.45313 8.570312,-1.35157 0.285157,-0.0898 0.593749,0.0664 0.687499,0.35157 0.0898,0.28515 -0.0664,0.58984 -0.35156,0.68359 -2.867189,0.92969 -5.867189,1.40234 -8.906251,1.40234"
     fill-opacity="1"
     fill-rule="nonzero"
     id="path12" />
  <path
     fill="#544f9f"
     d="m 55.839848,58.296876 c -0.14844,0 -0.29297,-0.0625 -0.40235,-0.17969 -0.19922,-0.21875 -0.18359,-0.5625 0.0391,-0.76562 5.79687,-5.27735 9.125,-12.78516 9.125,-20.59766 0,-9.16016 -4.52344,-17.74219 -12.10157,-22.95703 -0.24609,-0.16797 -0.30859,-0.50781 -0.13672,-0.75391 0.16797,-0.24609 0.50782,-0.30859 0.75391,-0.14062 7.87109,5.41797 12.57031,14.33203 12.57031,23.85156 0,4.14062 -0.86328,8.14062 -2.55859,11.89062 -1.64063,3.6211 -3.96875,6.82422 -6.92578,9.51172 -0.10156,0.0937 -0.23438,0.14063 -0.36328,0.14063"
     fill-opacity="1"
     fill-rule="nonzero"
     id="path13" />
  <path
     fill="#f0401e"
     d="m 36.753907,63.082026 c -8.960938,0 -17.226563,-4.50781 -22.117188,-12.05468 -0.160156,-0.25391 -0.08984,-0.58985 0.164063,-0.75391 0.25,-0.16016 0.585937,-0.0898 0.75,0.16016 4.6875,7.24218 12.613281,11.5625 21.203125,11.5625 13.917971,0 25.238281,-11.32422 25.238281,-25.24219 0,-1.10938 -0.0703,-2.22266 -0.21484,-3.3125 -0.0391,-0.30078 0.17187,-0.57031 0.46875,-0.60938 0.29687,-0.0391 0.57031,0.16797 0.60937,0.46485 0.14844,1.14062 0.22266,2.30078 0.22266,3.45703 0,14.51562 -11.8086,26.32812 -26.324221,26.32812"
     fill-opacity="1"
     fill-rule="nonzero"
     id="path14" />
  <path
     fill="#f1ad53"
     d="m 10.996094,38.523436 c -0.285156,0 -0.527344,-0.22656 -0.539062,-0.51953 -0.01953,-0.41406 -0.03125,-0.83594 -0.03125,-1.25 0,-14.51563 11.808594,-26.32813 26.328125,-26.32813 10.433591,0 19.894531,6.1836 24.109371,15.75391 0.1211,0.27344 -0.004,0.59766 -0.27734,0.71484 -0.27344,0.1211 -0.59766,-0.004 -0.71484,-0.27734 -4.04297,-9.17578 -13.11328,-15.10547 -23.117191,-15.10547 -13.917969,0 -25.242188,11.32422 -25.242188,25.24219 0,0.39844 0.0078,0.80078 0.02734,1.19922 0.01563,0.30078 -0.214844,0.55469 -0.515625,0.5664 -0.0078,0 -0.01563,0.004 -0.02734,0.004"
     fill-opacity="1"
     fill-rule="nonzero"
     id="path15" />
  <path
     fill="#5db3e7"
     d="m 36.753907,60.472656 c -13.082031,0 -23.722657,-10.64063 -23.722657,-23.71875 0,-3.79688 0.875,-7.42578 2.597657,-10.78516 0.136719,-0.26953 0.464843,-0.375 0.730469,-0.23828 0.265624,0.14063 0.371093,0.46485 0.234374,0.73438 -1.640624,3.20703 -2.476562,6.66797 -2.476562,10.28906 0,12.48047 10.15625,22.63281 22.636719,22.63281 6.789062,0 13.164061,-3.01953 17.492191,-8.28515 0.1914,-0.23047 0.53125,-0.26172 0.76562,-0.0742 0.23047,0.1914 0.26172,0.53515 0.0742,0.76562 -4.53516,5.51563 -11.21875,8.67969 -18.332031,8.67969"
     fill-opacity="1"
     fill-rule="nonzero"
     id="path16" />
  <path
     fill="#54afe6"
     d="m 58.800778,44.460936 c -0.0586,0 -0.11328,-0.0117 -0.17187,-0.0273 -0.28516,-0.0937 -0.4375,-0.40235 -0.34766,-0.6875 0.73438,-2.25 1.10547,-4.60547 1.10547,-6.99219 0,-12.48047 -10.15234,-22.63672 -22.632811,-22.63672 -3.679688,0 -7.332031,0.90625 -10.566407,2.62109 -0.265624,0.14063 -0.59375,0.0391 -0.734374,-0.22656 -0.140626,-0.26172 -0.03906,-0.59375 0.226562,-0.73437 3.390625,-1.79297 7.21875,-2.7461 11.074219,-2.7461 13.078121,0 23.718751,10.64063 23.718751,23.72266 0,2.50391 -0.38672,4.96875 -1.15625,7.33203 -0.0742,0.22656 -0.28906,0.375 -0.51563,0.375"
     fill-opacity="1"
     fill-rule="nonzero"
     id="path17" />
  <path
     fill="#544f9f"
     d="m 36.753907,57.867186 c -1.640625,0 -3.277344,-0.1875 -4.863281,-0.5625 -0.289063,-0.0703 -0.472657,-0.36328 -0.402344,-0.65625 0.07031,-0.28906 0.363281,-0.47266 0.652344,-0.40234 1.503906,0.35547 3.054687,0.53515 4.613281,0.53515 11.042971,0 20.027341,-8.98437 20.027341,-20.02734 0,-11.04297 -8.98437,-20.03125 -20.027341,-20.03125 -11.042969,0 -20.03125,8.98828 -20.03125,20.03125 0,5.85156 2.558593,11.39844 7.023437,15.21484 0.226563,0.19532 0.253906,0.53907 0.05859,0.76563 -0.195312,0.23047 -0.539062,0.2539 -0.765625,0.0625 -4.703125,-4.02735 -7.402344,-9.875 -7.402344,-16.04297 0,-11.64453 9.472657,-21.11328 21.117188,-21.11328 11.640621,0 21.113281,9.46875 21.113281,21.11328 0,11.64062 -9.47266,21.11328 -21.113281,21.11328"
     fill-opacity="1"
     fill-rule="nonzero"
     id="path18" />
  <path
     fill="#f1ad53"
     d="m 36.753907,55.261716 c -3.753907,0 -7.367188,-1.12109 -10.457031,-3.24219 -3.015626,-2.07421 -5.332032,-4.94921 -6.703126,-8.32421 -0.113281,-0.28125 0.02344,-0.59766 0.300782,-0.71094 0.277344,-0.10938 0.59375,0.0234 0.707031,0.30078 2.683594,6.61719 9.023437,10.89062 16.152344,10.89062 9.605471,0 17.421871,-7.8164 17.421871,-17.42187 0,-6.57031 -3.64453,-12.51953 -9.511715,-15.51953 -0.265625,-0.13672 -0.371094,-0.46485 -0.234375,-0.73438 0.136719,-0.26562 0.464844,-0.37109 0.730469,-0.23437 2.988281,1.53125 5.511721,3.84765 7.296871,6.69922 1.83594,2.93359 2.80469,6.32031 2.80469,9.78906 0,10.20312 -8.30469,18.50781 -18.507811,18.50781"
     fill-opacity="1"
     fill-rule="nonzero"
     id="path19" />
  <path
     fill="#5db3e7"
     d="m 19.390626,32.671876 c -0.04688,0 -0.09375,-0.008 -0.140626,-0.0195 -0.289062,-0.0781 -0.460937,-0.375 -0.382812,-0.66407 1,-3.76171 3.234375,-7.1875 6.285156,-9.64843 3.140625,-2.53125 6.929688,-3.94532 10.953125,-4.08203 0.300781,-0.0117 0.550781,0.22265 0.5625,0.52343 0.0078,0.29688 -0.226562,0.55078 -0.527343,0.5586 -7.59375,0.26562 -14.265626,5.58203 -16.226563,12.92968 -0.0625,0.24219 -0.28125,0.40235 -0.523437,0.40235"
     fill-opacity="1"
     fill-rule="nonzero"
     id="path20" />
  <path
     fill="#f14d27"
     d="m 36.753907,52.656246 c -8.769531,0 -15.902344,-7.13281 -15.902344,-15.90234 0,-8.76953 7.132813,-15.90234 15.902344,-15.90234 8.769531,0 15.902341,7.13281 15.902341,15.90234 0,1.22266 -0.14062,2.4375 -0.41406,3.61719 -0.0664,0.29297 -0.35937,0.47265 -0.65234,0.40625 -0.29297,-0.0664 -0.47266,-0.35938 -0.40625,-0.65235 0.25781,-1.09765 0.38672,-2.23047 0.38672,-3.37109 0,-8.17188 -6.648442,-14.81641 -14.816411,-14.81641 -8.171875,0 -14.816407,6.64453 -14.816407,14.81641 0,8.16797 6.644532,14.81641 14.816407,14.81641 2.699219,0 5.339843,-0.73438 7.636719,-2.11719 0.257812,-0.15625 0.59375,-0.0742 0.746093,0.18359 0.15625,0.25391 0.07422,0.58985 -0.183593,0.7461 -2.46875,1.48437 -5.304688,2.27343 -8.199219,2.27343"
     fill-opacity="1"
     fill-rule="nonzero"
     id="path21" />
  <g
     fill="#ffffff"
     fill-opacity="1"
     id="g24"
     transform="translate(-54.351562,-127.49609)">
    <g
       transform="translate(151.92216,173.22166)"
       id="g23">
      <g
         id="g22">
        <path
           d="M 7.84375,0 H 5.796875 V -15.796875 H 0.21875 v -1.8125 h 13.203125 v 1.8125 H 7.84375 Z m 0,0"
           id="path22" />
      </g>
    </g>
  </g>
  <g
     fill="#ffffff"
     fill-opacity="1"
     id="g27"
     transform="translate(-54.351562,-127.49609)">
    <g
       transform="translate(167.37069,173.22166)"
       id="g26">
      <g
         id="g25">
        <path
           d="m 17.703125,-8.828125 c 0,2.8125 -0.714844,5.027344 -2.140625,6.640625 -1.417969,1.617188 -3.398438,2.421875 -5.9375,2.421875 -2.59375,0 -4.601562,-0.789063 -6.015625,-2.375 C 2.203125,-3.722656 1.5,-5.960938 1.5,-8.859375 c 0,-2.863281 0.707031,-5.082031 2.125,-6.65625 1.414062,-1.582031 3.425781,-2.375 6.03125,-2.375 2.519531,0 4.488281,0.804687 5.90625,2.40625 1.425781,1.605469 2.140625,3.824219 2.140625,6.65625 z m -14.03125,0 c 0,2.386719 0.503906,4.199219 1.515625,5.4375 1.019531,1.230469 2.5,1.84375 4.4375,1.84375 1.945312,0 3.421875,-0.613281 4.421875,-1.84375 1,-1.226563 1.5,-3.039063 1.5,-5.4375 0,-2.375 -0.5,-4.171875 -1.5,-5.390625 -0.992187,-1.226562 -2.453125,-1.84375 -4.390625,-1.84375 -1.960938,0 -3.449219,0.621094 -4.46875,1.859375 -1.011719,1.230469 -1.515625,3.023437 -1.515625,5.375 z m 0,0"
           id="path24" />
      </g>
    </g>
  </g>
  <g
     fill="#ffffff"
     fill-opacity="1"
     id="g30"
     transform="translate(-54.351562,-127.49609)">
    <g
       transform="translate(188.38396,173.22166)"
       id="g29">
      <g
         id="g28">
        <path
           d="M 10.21875,0 4.234375,-15.609375 h -0.09375 c 0.113281,1.242187 0.171875,2.710937 0.171875,4.40625 V 0 H 2.421875 V -17.609375 H 5.5 l 5.578125,14.53125 h 0.09375 l 5.640625,-14.53125 h 3.046875 V 0 H 17.8125 v -11.34375 c 0,-1.300781 0.05469,-2.71875 0.171875,-4.25 h -0.09375 L 11.859375,0 Z m 0,0"
           id="path27" />
      </g>
    </g>
  </g>
  <g
     fill="#ffffff"
     fill-opacity="1"
     id="g33"
     transform="translate(-54.351562,-127.49609)">
    <g
       transform="translate(212.45664,173.22166)"
       id="g32">
      <g
         id="g31" />
    </g>
  </g>
  <g
     fill="#ffffff"
     fill-opacity="1"
     id="g36"
     transform="translate(-54.351562,-127.49609)">
    <g
       transform="translate(220.66617,173.22166)"
       id="g35">
      <g
         id="g34">
        <path
           d="M 4.46875,0 H 2.421875 v -17.609375 h 9.8125 v 1.8125 H 4.46875 v 6.453125 h 7.296875 v 1.8125 H 4.46875 Z m 0,0"
           id="path33" />
      </g>
    </g>
  </g>
  <g
     fill="#ffffff"
     fill-opacity="1"
     id="g39"
     transform="translate(-54.351562,-127.49609)">
    <g
       transform="translate(235.19928,173.22166)"
       id="g38">
      <g
         id="g37">
        <path
           d="m 13.5,0 -2.203125,-5.609375 h -7.0625 L 2.078125,0 H 0 L 6.96875,-17.6875 H 8.6875 L 15.609375,0 Z m -2.84375,-7.4375 -2.046875,-5.46875 c -0.261719,-0.6875 -0.53125,-1.53125 -0.8125,-2.53125 -0.179687,0.773438 -0.433594,1.617188 -0.765625,2.53125 l -2.0625,5.46875 z m 0,0"
           id="path36" />
      </g>
    </g>
  </g>
  <g
     fill="#ffffff"
     fill-opacity="1"
     id="g42"
     transform="translate(-54.351562,-127.49609)">
    <g
       transform="translate(252.61112,173.22166)"
       id="g41">
      <g
         id="g40">
        <path
           d="M 4.46875,-7.328125 V 0 H 2.421875 V -17.609375 H 7.25 c 2.164062,0 3.765625,0.417969 4.796875,1.25 1.03125,0.824219 1.546875,2.0625 1.546875,3.71875 0,2.335937 -1.183594,3.90625 -3.546875,4.71875 L 14.828125,0 H 12.40625 L 8.140625,-7.328125 Z m 0,-1.75 h 2.8125 c 1.4375,0 2.492188,-0.285156 3.171875,-0.859375 0.675781,-0.582031 1.015625,-1.445312 1.015625,-2.59375 0,-1.164062 -0.34375,-2.003906 -1.03125,-2.515625 C 9.75,-15.554688 8.644531,-15.8125 7.125,-15.8125 H 4.46875 Z m 0,0"
           id="path39" />
      </g>
    </g>
  </g>
  <g
     fill="#ffffff"
     fill-opacity="1"
     id="g45"
     transform="translate(-54.351562,-127.49609)">
    <g
       transform="translate(269.66161,173.22166)"
       id="g44">
      <g
         id="g43">
        <path
           d="M 4.46875,-7.328125 V 0 H 2.421875 V -17.609375 H 7.25 c 2.164062,0 3.765625,0.417969 4.796875,1.25 1.03125,0.824219 1.546875,2.0625 1.546875,3.71875 0,2.335937 -1.183594,3.90625 -3.546875,4.71875 L 14.828125,0 H 12.40625 L 8.140625,-7.328125 Z m 0,-1.75 h 2.8125 c 1.4375,0 2.492188,-0.285156 3.171875,-0.859375 0.675781,-0.582031 1.015625,-1.445312 1.015625,-2.59375 0,-1.164062 -0.34375,-2.003906 -1.03125,-2.515625 C 9.75,-15.554688 8.644531,-15.8125 7.125,-15.8125 H 4.46875 Z m 0,0"
           id="path42" />
      </g>
    </g>
  </g>
  <g
     fill="#ffffff"
     fill-opacity="1"
     id="g48"
     transform="translate(-54.351562,-127.49609)">
    <g
       transform="translate(286.71211,173.22166)"
       id="g47">
      <g
         id="g46">
        <path
           d="m 12.234375,0 h -9.8125 v -17.609375 h 9.8125 v 1.8125 H 4.46875 V -10.125 h 7.296875 v 1.8125 H 4.46875 v 6.484375 h 7.765625 z m 0,0"
           id="path45" />
      </g>
    </g>
  </g>
  <g
     fill="#ffffff"
     fill-opacity="1"
     id="g51"
     transform="translate(-54.351562,-127.49609)">
    <g
       transform="translate(302.23291,173.22166)"
       id="g50">
      <g
         id="g49">
        <path
           d="M 2.421875,0 V -17.609375 H 4.46875 v 15.75 h 7.765625 V 0 Z m 0,0"
           id="path48" />
      </g>
    </g>
  </g>
  <g
     fill="#ffffff"
     fill-opacity="1"
     id="g54"
     transform="translate(-54.351562,-127.49609)">
    <g
       transform="translate(316.83829,173.22166)"
       id="g53">
      <g
         id="g52">
        <path
           d="M 2.421875,0 V -17.609375 H 4.46875 v 15.75 h 7.765625 V 0 Z m 0,0"
           id="path51" />
      </g>
    </g>
  </g>
</svg>
